<svg width="1000" height="184" xmlns="http://www.w3.org/2000/svg" xmlns:xlink="http://www.w3.org/1999/xlink" overflow="hidden"><defs><clipPath id="clip0"><rect x="158" y="499" width="1000" height="184"/></clipPath></defs><g clip-path="url(#clip0)" transform="translate(-158 -499)"><path d="M165 584.419C165 580.874 167.874 578 171.419 578L1150.58 578C1154.13 578 1157 580.874 1157 584.419L1157 661.581C1157 665.126 1154.13 668 1150.58 668L171.419 668C167.874 668 165 665.126 165 661.581Z" fill="#4A71A0" fill-rule="evenodd"/><path d="M13.2811 0.975564C11.8254 2.5542 13.4161 7.12978 12.3739 10.6446 9.97491 12.954 2.27537 14.1918 0.887728 16.8981-0.94703 19.1369 0.493523 23.102 1.36529 24.0772 1.37453 25.0525 1.14445 26.5672 4.04817 26.8829 6.95189 27.1986 15.5832 26.8697 18.7875 25.9715 22.8544 24.2123 25.5141 25.627 28.4492 24.5938 29.5987 23.5809 29.3536 24.3643 29.6702 20.8053 30.1413 15.4583 30.0774 4.64588 29.6703 1.17285 26.2782-1.78352 25.1255 1.86592 21.1083 1.1729 17.4109 1.68542 14.7369-0.603074 13.2811 0.975564Z" stroke="#352011" stroke-width="2.66667" stroke-linecap="round" stroke-linejoin="round" stroke-miterlimit="10" fill="#632D09" fill-rule="evenodd" transform="matrix(-1 -8.74228e-08 -8.74228e-08 1 1149.5 636.5)"/><path d="M1120.5 657.5 1128.19 658.587C1133.08 659.985 1145.83 662.005 1147.5 658.743" stroke="#352011" stroke-width="2.66667" stroke-miterlimit="8" fill="none" fill-rule="evenodd"/><path d="M1089.78 636.476C1088.33 638.054 1089.92 642.63 1088.87 646.145 1086.47 648.454 1078.78 649.692 1077.39 652.398 1075.55 654.637 1076.99 658.602 1077.87 659.577 1077.87 660.553 1077.64 662.067 1080.55 662.383 1083.45 662.699 1092.08 662.37 1095.29 661.472 1099.35 659.712 1102.01 661.127 1104.95 660.094 1106.1 659.081 1105.85 659.864 1106.17 656.305 1106.64 650.958 1106.58 640.146 1106.17 636.673 1102.78 633.717 1101.63 637.366 1097.61 636.673 1093.91 637.185 1091.24 634.897 1089.78 636.476Z" stroke="#352011" stroke-width="2.66667" stroke-linecap="round" stroke-linejoin="round" stroke-miterlimit="10" fill="#632D09" fill-rule="evenodd"/><path d="M0 0 6.54972 1.08735C10.7131 2.48542 21.5783 4.50485 23 1.24273" stroke="#352011" stroke-width="2.66667" stroke-miterlimit="8" fill="none" fill-rule="evenodd" transform="matrix(-1 -8.74228e-08 -8.74228e-08 1 1101.5 657.5)"/><path d="M1102.89 586.5C1097.75 587.685 1092.64 589.514 1088.96 591.536 1085.29 593.559 1083.27 596.76 1080.83 598.635 1078.39 600.509 1073.8 603.274 1067.5 608.707 1067.55 612.904 1073.87 620.706 1077.57 624.409 1080.02 623.172 1087.4 621.323 1090.75 619.817 1092.83 625.641 1089.77 629.221 1091.27 636.185 1096.27 636.522 1109.55 636.848 1119.42 635.69 1120.03 625.866 1116.9 595.13 1117.4 595.091 1116.12 585.414 1107.73 589.364 1102.89 586.5Z" stroke="#2F528F" stroke-width="2.66667" stroke-miterlimit="8" fill="#9DC3E6" fill-rule="evenodd"/><path d="M1128.59 586.722C1122.5 588.374 1115.42 599.586 1110.54 608.341 1111.12 617.293 1109.26 633.946 1112.31 637.295 1118.15 637.778 1132.01 639.747 1135.9 637.295 1140 634.362 1134.63 618.444 1134.8 613.986 1137.5 613.337 1142.94 620.888 1144.98 618.295 1147.03 615.703 1150.45 607.087 1147.08 598.429 1144.91 593.012 1134.68 585.07 1128.59 586.722Z" stroke="#2F528F" stroke-width="2.66667" stroke-linecap="round" stroke-linejoin="round" stroke-miterlimit="10" fill="#9DC3E6" fill-rule="evenodd"/><path d="M1141.5 593.634C1138.77 588.101 1135.33 588.671 1129.37 588.5 1124.61 593.862 1116.62 620.615 1114.5 629.571 1117.23 629.856 1122.19 631.511 1126.33 629.571 1131.03 621.756 1139.68 599.738 1141.5 593.634Z" stroke="#7F6000" stroke-width="2.66667" stroke-miterlimit="8" fill="#FFFF00" fill-rule="evenodd"/><path d="M20 4.52271C17.9775-0.351751 15.4307 0.150757 11.0113 0 7.49068 4.7237 1.57303 28.2921 0 36.1817 2.02247 36.433 5.6929 37.8902 8.76404 36.1817 12.2472 29.2971 18.6517 9.89973 20 4.52271Z" stroke="#7F6000" stroke-width="2.66667" stroke-miterlimit="8" fill="#FFFF00" fill-rule="evenodd" transform="matrix(-1 -8.74228e-08 -8.74228e-08 1 1107.5 593.5)"/><path d="M1130.24 633.038C1135.17 630.623 1136.4 632.972 1130.52 627.125 1120.83 627.321 1104 628.116 1093.89 626.358 1086.07 633.241 1090.89 630.819 1095.4 632.974 1104.51 634.176 1124.54 635.901 1130.24 633.038Z" stroke="#7F6000" stroke-width="2.66667" stroke-miterlimit="8" fill="#FFFF00" fill-rule="evenodd"/><path d="M1112.09 607.365C1104.89 606.179 1099.78 609.256 1097.02 609.24 1094.26 609.224 1095.12 609.186 1095.54 607.268 1095.95 605.35 1100.78 597.898 1098.83 597.569 1096.62 597.309 1085.39 606.502 1084.5 603.651 1084.5 598.925 1090.85 584.328 1093.5 580.464 1096.15 576.599 1100.4 580.464 1100.4 580.464 1105.11 580.521 1116.96 580.923 1121.78 580.808 1126.61 580.693 1126.26 576.438 1129.37 579.775 1132.49 583.113 1141.09 599.536 1140.47 600.834 1139.84 602.132 1128.67 597.788 1126.61 599.399 1124.56 601.01 1129.56 606.372 1128.13 610.5 1123.84 610.172 1118.28 606.096 1112.09 607.365Z" stroke="#2F528F" stroke-width="2.66667" stroke-miterlimit="8" fill="#9DC3E6" fill-rule="evenodd"/><path d="M1120.28 583.976C1114.38 583.08 1104.64 583.704 1100.48 583.813 1097.13 586.61 1098.87 596.033 1099.68 598.477 1100.59 603.692 1104.88 602.519 1112.03 607.5 1119.57 603.916 1124.22 605.239 1126.23 599.944 1127.07 592.15 1126.18 584.872 1120.28 583.976Z" stroke="#2F528F" stroke-width="2.66667" stroke-miterlimit="8" fill="#FFECD9" fill-rule="evenodd"/><path d="M1075 561.5C1075 535.76 1091.34 523 1111.5 523 1131.66 523 1148 540.237 1148 561.5 1147.15 589.03 1131.66 600 1111.5 600 1091.34 600 1075 587.24 1075 561.5Z" stroke="#2F5597" stroke-width="4" stroke-miterlimit="8" fill="#FFECD9" fill-rule="evenodd"/><path d="M1101.5 568.5C1101.5 566.291 1102.17 564.5 1103 564.5 1103.83 564.5 1104.5 566.291 1104.5 568.5 1104.5 570.709 1103.83 572.5 1103 572.5 1102.17 572.5 1101.5 570.709 1101.5 568.5Z" stroke="#2F528F" stroke-width="1.33333" stroke-miterlimit="8" fill="#2F5597" fill-rule="evenodd"/><path d="M1115.5 568.5C1115.5 566.291 1116.4 564.5 1117.5 564.5 1118.6 564.5 1119.5 566.291 1119.5 568.5 1119.5 570.709 1118.6 572.5 1117.5 572.5 1116.4 572.5 1115.5 570.709 1115.5 568.5Z" stroke="#2F528F" stroke-width="1.33333" stroke-miterlimit="8" fill="#2F5597" fill-rule="evenodd"/><path d="M1101 556.608C1101.02 554.141 1104.13 554.704 1104 557" stroke="#2F528F" stroke-width="2" stroke-miterlimit="8" fill="none" fill-rule="evenodd"/><path d="M0 1.60807C0.0189821-0.859455 3.12792-0.295748 2.99629 2" stroke="#2F528F" stroke-width="2" stroke-miterlimit="8" fill="none" fill-rule="evenodd" transform="matrix(-1 -8.74228e-08 -8.74228e-08 1 1118 555)"/><path d="M1089.5 579.9C1090.82 578.8 1092.14 577.701 1092.54 577.801 1092.94 577.901 1091.6 580.5 1091.89 580.5 1092.18 580.5 1093.92 577.826 1094.28 577.801 1094.64 577.776 1093.67 580.4 1094.07 580.35 1094.46 580.3 1096.24 577.551 1096.67 577.501 1097.11 577.451 1096.2 579.875 1096.67 580.05 1097.14 580.225 1099.5 578.551 1099.5 578.551L1099.5 578.551 1099.28 578.401" stroke="#C55A11" stroke-width="0.666667" stroke-miterlimit="8" fill="none" fill-rule="evenodd"/><path d="M1121.5 579.9C1122.82 578.8 1124.14 577.701 1124.54 577.801 1124.94 577.901 1123.6 580.5 1123.89 580.5 1124.18 580.5 1125.92 577.826 1126.28 577.801 1126.64 577.776 1125.67 580.4 1126.07 580.35 1126.46 580.3 1128.24 577.551 1128.67 577.501 1129.11 577.451 1128.2 579.875 1128.67 580.05 1129.14 580.225 1131.5 578.551 1131.5 578.551L1131.5 578.551 1131.28 578.401" stroke="#C55A11" stroke-width="0.666667" stroke-miterlimit="8" fill="none" fill-rule="evenodd"/><path d="M1115 585C1114.93 589.988 1105.16 590.594 1105 585.205" stroke="#2F528F" stroke-width="2" stroke-miterlimit="8" fill="none" fill-rule="evenodd"/><path d="M1116.32 584.926C1115.88 585.753 1114.79 585.155 1114.76 583.931" stroke="#2F528F" stroke-width="2" stroke-miterlimit="8" fill="none" fill-rule="evenodd"/><path d="M1143.5 547.451C1143.51 547.49 1144.19 551.275 1145.55 550.357 1146.3 549.844 1146.64 548.742 1147.18 547.935 1147.32 547.451 1147.31 546.874 1147.59 546.482 1148.17 545.661 1149.47 544.69 1150.45 544.545 1151.13 544.444 1151.82 544.545 1152.5 544.545" stroke="#2F528F" stroke-width="1.33333" stroke-linecap="round" stroke-linejoin="round" stroke-miterlimit="10" fill="none" fill-rule="evenodd"/><path d="M1143.5 550.451C1143.51 550.49 1144.19 554.275 1145.55 553.357 1146.3 552.844 1146.64 551.742 1147.18 550.935 1147.32 550.451 1147.31 549.874 1147.59 549.482 1148.17 548.661 1149.47 547.69 1150.45 547.545 1151.13 547.444 1151.82 547.545 1152.5 547.545" stroke="#2F528F" stroke-width="1.33333" stroke-linecap="round" stroke-linejoin="round" stroke-miterlimit="10" fill="none" fill-rule="evenodd"/><path d="M1146.5 551.451C1146.51 551.49 1147.11 555.275 1148.32 554.357 1148.99 553.844 1149.29 552.742 1149.77 551.935 1149.89 551.451 1149.89 550.874 1150.14 550.482 1150.65 549.661 1151.81 548.69 1152.68 548.545 1153.28 548.444 1153.89 548.545 1154.5 548.545" stroke="#2F528F" stroke-width="1.33333" stroke-linecap="round" stroke-linejoin="round" stroke-miterlimit="10" fill="none" fill-rule="evenodd"/><path d="M1143 545.459C1143.01 545.491 1143.69 548.646 1145.05 547.88 1145.8 547.453 1146.14 546.535 1146.68 545.862 1146.82 545.459 1146.81 544.978 1147.09 544.651 1147.67 543.968 1148.97 543.159 1149.95 543.037 1150.63 542.954 1151.32 543.037 1152 543.037" stroke="#2F528F" stroke-width="2" stroke-linecap="round" stroke-linejoin="round" stroke-miterlimit="10" fill="none" fill-rule="evenodd"/><path d="M1070.62 541.017C1070.62 541.045 1070.13 543.438 1071.78 543.755 1072.7 543.932 1073.37 543.548 1074.17 543.445 1074.46 543.27 1074.63 542.965 1075.03 542.921 1075.87 542.829 1077.47 543.085 1078.51 543.59 1079.22 543.937 1079.88 544.395 1080.56 544.798" stroke="#2F528F" stroke-width="1.33333" stroke-linecap="round" stroke-linejoin="round" stroke-miterlimit="10" fill="none" fill-rule="evenodd"/><path d="M1069.52 543.305C1069.52 543.334 1069.03 545.726 1070.68 546.043 1071.6 546.221 1072.27 545.837 1073.07 545.733 1073.36 545.559 1073.53 545.253 1073.93 545.209 1074.76 545.118 1076.37 545.373 1077.41 545.879 1078.12 546.225 1078.78 546.684 1079.46 547.086" stroke="#2F528F" stroke-width="1.33333" stroke-linecap="round" stroke-linejoin="round" stroke-miterlimit="10" fill="none" fill-rule="evenodd"/><path d="M1075.6 538.371C1075.56 538.392 1072.17 540.007 1073.33 540.662 1073.98 541.028 1075.09 540.922 1075.97 541.052 1076.45 540.999 1076.99 540.821 1077.42 540.892 1078.32 541.04 1079.51 541.639 1079.87 542.273 1080.12 542.709 1080.18 543.212 1080.33 543.681" stroke="#2F528F" stroke-width="2" stroke-linecap="round" stroke-linejoin="round" stroke-miterlimit="10" fill="none" fill-rule="evenodd"/><path d="M1022.69 530.247C1029.01 526.019 1036.29 523.819 1043.09 520.606 1066.44 564.763 1085.55 607.822 1105.62 652.91 1099.78 658.151 1092.02 659.337 1085.22 662.551 1063.87 618.689 1041.51 575.306 1022.69 530.247Z" stroke="#2F5597" stroke-width="4" stroke-miterlimit="8" fill="#FFFFFF" fill-rule="evenodd"/><path d="M1074.89 634.886 1091.57 627.004 1099.86 644.551 1083.19 652.433C1078.21 645.037 1077.5 642.624 1074.89 634.886Z" fill="#F4B183" fill-rule="evenodd"/><path d="M1059.02 603.159 1077.01 594.656 1085.3 612.203 1067.31 620.706C1062.24 613.355 1061.55 610.929 1059.02 603.159Z" fill="#F4B183" fill-rule="evenodd"/><path d="M1040.71 566.19 1059.55 557.287 1067.84 574.833 1049 583.737C1043.88 576.415 1043.2 573.981 1040.71 566.19Z" fill="#F4B183" fill-rule="evenodd"/><path d="M1025.75 530.752 1042.54 522.815 1050.84 540.362 1034.04 548.299C1029.06 540.907 1028.34 538.493 1025.75 530.752Z" fill="#F4B183" fill-rule="evenodd"/><path d="M1025.23 534.879C1026.04 533.71 1027.47 533.598 1028.87 532.641" stroke="#2F528F" stroke-width="2" stroke-miterlimit="8" fill="none" fill-rule="evenodd"/><path d="M1028.24 541.258C1029.06 540.09 1030.49 539.977 1031.89 539.02" stroke="#2F528F" stroke-width="2" stroke-miterlimit="8" fill="none" fill-rule="evenodd"/><path d="M1031.25 547.691C1032.06 546.523 1033.5 546.41 1034.9 545.453" stroke="#2F528F" stroke-width="2" stroke-miterlimit="8" fill="none" fill-rule="evenodd"/><path d="M1034.38 554.295C1035.19 553.126 1036.62 553.014 1038.02 552.057" stroke="#2F528F" stroke-width="2" stroke-miterlimit="8" fill="none" fill-rule="evenodd"/><path d="M1037.4 560.688C1038.21 559.519 1039.64 559.407 1041.04 558.45" stroke="#2F528F" stroke-width="2" stroke-miterlimit="8" fill="none" fill-rule="evenodd"/><path d="M1040.42 567.081C1041.23 565.912 1042.66 565.8 1044.06 564.843" stroke="#2F528F" stroke-width="2" stroke-miterlimit="8" fill="none" fill-rule="evenodd"/><path d="M1043.55 573.705C1044.36 572.536 1045.79 572.424 1047.19 571.467" stroke="#2F528F" stroke-width="2" stroke-miterlimit="8" fill="none" fill-rule="evenodd"/><path d="M1046.68 580.329C1047.49 579.161 1048.92 579.048 1050.32 578.091" stroke="#2F528F" stroke-width="2" stroke-miterlimit="8" fill="none" fill-rule="evenodd"/><path d="M1049.81 586.954C1050.62 585.785 1052.05 585.673 1053.45 584.716" stroke="#2F528F" stroke-width="2" stroke-miterlimit="8" fill="none" fill-rule="evenodd"/><path d="M1052.84 593.367C1053.65 592.198 1055.08 592.086 1056.48 591.129" stroke="#2F528F" stroke-width="2" stroke-miterlimit="8" fill="none" fill-rule="evenodd"/><path d="M1055.67 599.619C1056.48 598.451 1057.91 598.338 1059.31 597.381" stroke="#2F528F" stroke-width="2" stroke-miterlimit="8" fill="none" fill-rule="evenodd"/><path d="M1058.79 606.223C1059.6 605.055 1061.03 604.942 1062.43 603.985" stroke="#2F528F" stroke-width="2" stroke-miterlimit="8" fill="none" fill-rule="evenodd"/><path d="M1061.81 612.616C1062.62 611.448 1064.05 611.335 1065.45 610.378" stroke="#2F528F" stroke-width="2" stroke-miterlimit="8" fill="none" fill-rule="evenodd"/><path d="M1064.85 619.05C1065.66 617.881 1067.09 617.769 1068.49 616.812" stroke="#2F528F" stroke-width="2" stroke-miterlimit="8" fill="none" fill-rule="evenodd"/><path d="M1067.88 625.464C1068.69 624.295 1070.12 624.183 1071.52 623.226" stroke="#2F528F" stroke-width="2" stroke-miterlimit="8" fill="none" fill-rule="evenodd"/><path d="M1070.91 631.249C1071.72 630.081 1073.15 629.968 1074.55 629.011" stroke="#2F528F" stroke-width="2" stroke-miterlimit="8" fill="none" fill-rule="evenodd"/><path d="M1073.34 637.027C1074.16 635.858 1075.59 635.746 1076.99 634.789" stroke="#2F528F" stroke-width="2" stroke-miterlimit="8" fill="none" fill-rule="evenodd"/><path d="M1076.38 643.441C1077.19 642.272 1078.62 642.16 1080.02 641.203" stroke="#2F528F" stroke-width="2" stroke-miterlimit="8" fill="none" fill-rule="evenodd"/><path d="M1079.31 649.643C1080.12 648.475 1081.55 648.362 1082.95 647.405" stroke="#2F528F" stroke-width="2" stroke-miterlimit="8" fill="none" fill-rule="evenodd"/><path d="M1082.24 655.846C1083.05 654.677 1084.48 654.565 1085.88 653.608" stroke="#2F528F" stroke-width="2" stroke-miterlimit="8" fill="none" fill-rule="evenodd"/><path d="M1042.1 527.477C1042.91 526.309 1044.34 526.196 1045.74 525.24" stroke="#2F528F" stroke-width="2" stroke-miterlimit="8" fill="none" fill-rule="evenodd"/><path d="M1045.11 533.857C1045.92 532.688 1047.36 532.576 1048.76 531.619" stroke="#2F528F" stroke-width="2" stroke-miterlimit="8" fill="none" fill-rule="evenodd"/><path d="M1048.12 540.29C1048.93 539.121 1050.36 539.009 1051.77 538.052" stroke="#2F528F" stroke-width="2" stroke-miterlimit="8" fill="none" fill-rule="evenodd"/><path d="M1051.24 546.894C1052.05 545.725 1053.49 545.613 1054.89 544.656" stroke="#2F528F" stroke-width="2" stroke-miterlimit="8" fill="none" fill-rule="evenodd"/><path d="M1054.26 553.287C1055.07 552.118 1056.51 552.006 1057.91 551.049" stroke="#2F528F" stroke-width="2" stroke-miterlimit="8" fill="none" fill-rule="evenodd"/><path d="M1057.29 559.68C1058.1 558.511 1059.53 558.399 1060.93 557.442" stroke="#2F528F" stroke-width="2" stroke-miterlimit="8" fill="none" fill-rule="evenodd"/><path d="M1060.42 566.304C1061.23 565.135 1062.66 565.023 1064.06 564.066" stroke="#2F528F" stroke-width="2" stroke-miterlimit="8" fill="none" fill-rule="evenodd"/><path d="M1063.55 572.928C1064.36 571.759 1065.79 571.647 1067.19 570.69" stroke="#2F528F" stroke-width="2" stroke-miterlimit="8" fill="none" fill-rule="evenodd"/><path d="M1066.68 579.552C1067.49 578.384 1068.92 578.271 1070.32 577.314" stroke="#2F528F" stroke-width="2" stroke-miterlimit="8" fill="none" fill-rule="evenodd"/><path d="M1069.71 585.966C1070.52 584.797 1071.95 584.685 1073.35 583.728" stroke="#2F528F" stroke-width="2" stroke-miterlimit="8" fill="none" fill-rule="evenodd"/><path d="M1072.53 592.218C1073.34 591.05 1074.78 590.937 1076.18 589.98" stroke="#2F528F" stroke-width="2" stroke-miterlimit="8" fill="none" fill-rule="evenodd"/><path d="M1075.65 598.822C1076.47 597.653 1077.9 597.541 1079.3 596.584" stroke="#2F528F" stroke-width="2" stroke-miterlimit="8" fill="none" fill-rule="evenodd"/><path d="M1078.68 605.215C1079.49 604.046 1080.92 603.934 1082.32 602.977" stroke="#2F528F" stroke-width="2" stroke-miterlimit="8" fill="none" fill-rule="evenodd"/><path d="M1081.72 611.649C1082.53 610.48 1083.96 610.368 1085.36 609.411" stroke="#2F528F" stroke-width="2" stroke-miterlimit="8" fill="none" fill-rule="evenodd"/><path d="M1084.75 618.062C1085.56 616.894 1086.99 616.781 1088.39 615.824" stroke="#2F528F" stroke-width="2" stroke-miterlimit="8" fill="none" fill-rule="evenodd"/><path d="M1087.78 623.848C1088.59 622.679 1090.02 622.567 1091.42 621.61" stroke="#2F528F" stroke-width="2" stroke-miterlimit="8" fill="none" fill-rule="evenodd"/><path d="M1090.21 629.626C1091.02 628.457 1092.46 628.345 1093.86 627.388" stroke="#2F528F" stroke-width="2" stroke-miterlimit="8" fill="none" fill-rule="evenodd"/><path d="M1093.24 636.039C1094.05 634.871 1095.49 634.758 1096.89 633.801" stroke="#2F528F" stroke-width="2" stroke-miterlimit="8" fill="none" fill-rule="evenodd"/><path d="M1096.17 642.242C1096.98 641.073 1098.42 640.961 1099.82 640.004" stroke="#2F528F" stroke-width="2" stroke-miterlimit="8" fill="none" fill-rule="evenodd"/><path d="M1099.11 648.445C1099.92 647.276 1101.35 647.164 1102.75 646.207" stroke="#2F528F" stroke-width="2" stroke-miterlimit="8" fill="none" fill-rule="evenodd"/><path d="M1046.8 601.337C1046.13 599.653 1045.46 597.969 1046.13 596.393 1046.79 594.818 1049.08 592.68 1050.81 591.886 1052.54 591.091 1055.59 591.218 1056.5 591.624 1057.41 592.03 1056.7 593.602 1056.28 594.322 1055.86 595.043 1054.92 595.495 1053.99 595.946" stroke="#2F5597" stroke-width="3.33333" stroke-linecap="round" stroke-linejoin="round" stroke-miterlimit="10" fill="#FFECD9" fill-rule="evenodd"/><path d="M1048.88 604.419C1048.48 602.706 1048.08 600.993 1048.91 599.553 1049.75 598.112 1052.17 596.328 1053.89 595.775 1055.61 595.221 1058.44 595.723 1059.23 596.229 1060.03 596.735 1059.15 598.167 1058.66 598.812 1058.17 599.457 1057.24 599.777 1056.31 600.098" stroke="#2F5597" stroke-width="3.33333" stroke-linecap="round" stroke-linejoin="round" stroke-miterlimit="10" fill="#FFECD9" fill-rule="evenodd"/><path d="M1051.49 609.745C1051.09 608.032 1050.69 606.319 1051.53 604.878 1052.36 603.437 1054.78 601.654 1056.5 601.1 1058.22 600.546 1061.05 601.048 1061.85 601.555 1062.64 602.061 1061.76 603.493 1061.28 604.137 1060.79 604.782 1059.85 605.103 1058.92 605.424" stroke="#2F5597" stroke-width="3.33333" stroke-linecap="round" stroke-linejoin="round" stroke-miterlimit="10" fill="#FFECD9" fill-rule="evenodd"/><path d="M1059.27 614.221C1051.12 613.834 1053.37 611.285 1053.76 609.433 1054.14 607.58 1056.59 606.984 1058.11 606.593 1059.63 606.202 1062.17 606.667 1062.9 607.085 1063.62 607.502 1062.87 608.604 1062.45 609.098 1062.04 609.592 1061.21 609.82 1060.38 610.048" stroke="#2F5597" stroke-width="3.33333" stroke-linecap="round" stroke-linejoin="round" stroke-miterlimit="10" fill="#FFECD9" fill-rule="evenodd"/><path d="M1068.78 546.502C1068.79 546.529 1068.99 548.963 1070.66 548.8 1071.59 548.709 1072.13 548.149 1072.87 547.824 1073.09 547.575 1073.18 547.232 1073.55 547.077 1074.32 546.753 1075.93 546.543 1077.07 546.733 1077.85 546.864 1078.61 547.117 1079.38 547.308" stroke="#2F528F" stroke-width="1.33333" stroke-linecap="round" stroke-linejoin="round" stroke-miterlimit="10" fill="none" fill-rule="evenodd"/><path d="M1068.37 549.009C1068.38 549.036 1068.58 551.47 1070.25 551.307 1071.19 551.216 1071.73 550.656 1072.46 550.331 1072.69 550.082 1072.77 549.739 1073.14 549.584 1073.91 549.26 1075.52 549.05 1076.66 549.24 1077.44 549.371 1078.2 549.624 1078.97 549.815" stroke="#2F528F" stroke-width="1.33333" stroke-linecap="round" stroke-linejoin="round" stroke-miterlimit="10" fill="none" fill-rule="evenodd"/><path d="M1072.8 542.554C1072.77 542.584 1069.98 545.094 1071.28 545.393 1072 545.559 1073.03 545.144 1073.91 545.02 1074.36 544.832 1074.83 544.509 1075.26 544.455 1076.16 544.342 1077.48 544.577 1078 545.084 1078.36 545.432 1078.56 545.897 1078.84 546.304" stroke="#2F528F" stroke-width="2" stroke-linecap="round" stroke-linejoin="round" stroke-miterlimit="10" fill="none" fill-rule="evenodd"/><path d="M0 1.80285C0.0104971 1.82676 0.547027 4.13958 1.62577 3.57853 2.22835 3.26516 2.49283 2.59203 2.92639 2.0988 3.03479 1.80285 3.03212 1.45061 3.25154 1.21096 3.7107 0.70948 4.74366 0.116375 5.52762 0.0271712 6.06537-0.0340222 6.61148 0.0271712 7.15339 0.0271712" stroke="#2F528F" stroke-width="1.33333" stroke-linecap="round" stroke-linejoin="round" stroke-miterlimit="10" fill="none" fill-rule="evenodd" transform="matrix(-0.862196 0.506575 0.506575 0.862196 1151.92 549.09)"/><path d="M0 1.80285C0.0104971 1.82676 0.547027 4.13958 1.62577 3.57853 2.22835 3.26516 2.49283 2.59203 2.92639 2.0988 3.03479 1.80285 3.03212 1.45061 3.25154 1.21096 3.7107 0.70948 4.74366 0.116375 5.52762 0.0271712 6.06537-0.0340222 6.61148 0.0271712 7.15339 0.0271712" stroke="#2F528F" stroke-width="2" stroke-linecap="round" stroke-linejoin="round" stroke-miterlimit="10" fill="none" fill-rule="evenodd" transform="matrix(-0.862196 0.506575 0.506575 0.862196 1152.68 551.378)"/><path d="M0 1.98076C0.00955409 2.00703 0.497884 4.54807 1.47972 3.93166 2.02817 3.58736 2.26889 2.84781 2.66349 2.30591 2.76216 1.98076 2.75973 1.59375 2.95944 1.33046 3.37735 0.779492 4.31752 0.127859 5.03104 0.0298524 5.52049-0.0373796 6.01754 0.0298524 6.51076 0.0298524" stroke="#2F528F" stroke-width="1.33333" stroke-linecap="round" stroke-linejoin="round" stroke-miterlimit="10" fill="none" fill-rule="evenodd" transform="matrix(-0.308809 0.951124 0.951124 0.308809 1147.88 546.548)"/><path d="M1090.17 623.453C1108.61 621.943 1125.53 622.446 1144.73 623.453 1146 636.701 1145.49 649.447 1144.73 662.444 1128.32 664.205 1108.61 663.45 1090.17 662.444 1089.15 648.944 1089.41 637.456 1090.17 623.453Z" stroke="#7F7F7F" stroke-width="2.66667" stroke-miterlimit="8" fill="#385723" fill-rule="evenodd"/><path d="M1090.5 630.5C1108.82 627.984 1126.06 627.688 1142.5 630.5" stroke="#FFFFFF" stroke-width="1.33333" stroke-miterlimit="8" fill="none" fill-rule="evenodd"/><path d="M1090.5 641.5C1109.62 638.41 1126.6 639.293 1142.5 641.5" stroke="#FFFFFF" stroke-width="1.33333" stroke-miterlimit="8" fill="none" fill-rule="evenodd"/><path d="M1100.5 652.343C1104.07 648.039 1107.63 643.735 1108.28 644.616 1108.93 645.497 1104.63 655.359 1104.39 657.63 1104.15 659.9 1105.17 660.104 1106.85 658.24 1108.52 656.376 1112.82 648.411 1114.42 646.446 1116.03 644.48 1116.64 645.192 1116.47 646.446 1116.3 647.7 1113.74 652.478 1113.4 653.969 1113.06 655.461 1113.02 656.342 1114.42 655.393 1115.82 654.444 1120.77 648.513 1121.79 648.276 1122.82 648.039 1120.39 652.919 1120.56 653.969 1120.73 655.02 1120.97 655.495 1122.82 654.579 1124.66 653.664 1130.25 648.073 1131.62 648.479 1132.33 649.598 1129.95 656.647 1131 657.02 1132.33 656.613 1135.95 651.462 1137.96 650.716 1142.43 647.734 1141.84 652.071 1140.63 653.969" stroke="#FFFFFF" stroke-width="0.666667" stroke-miterlimit="8" fill="none" fill-rule="evenodd"/><path d="M1104.5 640.5C1102.78 638.092 1103.62 630.634 1104.5 624.5" stroke="#FFFFFF" stroke-width="1.33333" stroke-miterlimit="8" fill="none" fill-rule="evenodd"/><path d="M1140.5 608.215C1139.18 606.627 1138.99 604.741 1138.24 603.099 1137.49 601.456 1136.17 600.355 1135.98 598.361 1135.8 596.367 1137.63 592.777 1137.11 591.135 1136.6 589.493 1134.2 588.581 1132.88 588.508 1131.56 588.435 1130.1 588.872 1129.21 590.697 1128.32 592.522 1127.66 596.792 1127.52 599.456 1127.38 602.12 1128.13 605.332 1128.36 606.682 1128.6 608.032 1128.93 607.558 1128.93 607.558L1135.42 620.5" stroke="#2F528F" stroke-width="3.33333" stroke-linecap="round" stroke-linejoin="round" stroke-miterlimit="10" fill="#FFECD9" fill-rule="evenodd"/><path d="M1138.48 604.5C1141.55 605.728 1144.61 606.956 1146.28 609.089 1147.94 611.223 1148.67 613.839 1148.47 617.301 1148.26 620.763 1146.88 627.083 1145.06 629.86 1143.23 632.638 1139.78 633.201 1137.51 633.966 1135.24 634.731 1131.42 634.449 1131.42 634.449L1131.42 634.449C1130.53 633.765 1126.96 631.551 1126.07 630.343 1125.18 629.136 1125.46 627.807 1126.07 627.204 1126.68 626.6 1128.83 626.721 1129.72 626.721 1130.61 626.721 1131.02 626.962 1131.42 627.204" stroke="#2F5597" stroke-width="3.33333" stroke-linecap="round" stroke-linejoin="round" stroke-miterlimit="10" fill="#FFECD9" fill-rule="evenodd"/><path d="M1140.5 628.09C1137.9 629 1135.31 629.91 1132.71 629.304 1130.11 628.697 1126.41 626.319 1124.92 624.448 1123.43 622.577 1123.24 619.138 1123.77 618.075 1124.3 617.013 1126.89 617.671 1128.09 618.075 1129.3 618.48 1130.14 619.492 1130.98 620.503" stroke="#2F5597" stroke-width="3.33333" stroke-linecap="round" stroke-linejoin="round" stroke-miterlimit="10" fill="#FFECD9" fill-rule="evenodd"/><path d="M1140.5 623.09C1137.75 624 1135 624.91 1132.25 624.304 1129.5 623.697 1125.58 621.319 1124 619.448 1122.43 617.577 1122.22 614.138 1122.78 613.075 1123.34 612.013 1126.09 612.671 1127.36 613.075 1128.64 613.48 1129.53 614.492 1130.42 615.503" stroke="#2F5597" stroke-width="3.33333" stroke-linecap="round" stroke-linejoin="round" stroke-miterlimit="10" fill="#FFECD9" fill-rule="evenodd"/><path d="M1139.5 617.83C1136.23 619.934 1134.04 619.686 1131.45 619.045 1128.87 618.404 1125.27 615.76 1123.99 613.987 1122.71 612.213 1121.5 610.759 1123.77 608.404 1126.04 606.049 1127 608.993 1128.24 609.398 1129.49 609.803 1130.88 610.136 1131.75 611.148" stroke="#2F5597" stroke-width="3.33333" stroke-linecap="round" stroke-linejoin="round" stroke-miterlimit="10" fill="#FFECD9" fill-rule="evenodd"/><path d="M1084.05 542.802C1089.98 543.72 1104.73 546.806 1114.74 546.989 1124.75 547.173 1138.9 544.969 1144.09 543.904 1149.28 542.838 1145.97 541.941 1145.88 540.597 1145.79 539.254 1144.41 537.073 1143.54 535.844 1142.68 534.615 1143.5 535.823 1142.01 531.903 1140.51 527.983 1139.54 517.776 1134.58 512.323 1129.62 506.87 1124.38 502.479 1112.27 502.027 1100.17 501.574 1094.82 506.949 1089.87 511.504 1084.93 516.059 1082.72 524.141 1082.61 529.357 1081.37 531.928 1082.28 530.9 1081.36 532.443 1080.44 533.985 1077.59 537.292 1077.1 538.614 1076.62 539.936 1077.96 540.781 1079.12 541.479 1080.28 542.177 1078.11 541.883 1084.05 542.802Z" stroke="#7F6000" stroke-width="4" stroke-linecap="round" stroke-linejoin="round" stroke-miterlimit="10" fill="#FFCC00" fill-rule="evenodd"/><path d="M1096.62 522.762C1095.59 525.597 1094.57 528.432 1095.18 529.459 1095.79 530.486 1100.28 528.922 1100.28 528.922L1100.28 528.922 1100.28 528.922" stroke="#2F528F" stroke-width="1.33333" stroke-linecap="round" stroke-linejoin="round" stroke-miterlimit="10" fill="none" fill-rule="evenodd"/><path d="M1107 524.051C1104.88 525.147 1102.77 526.244 1102.67 527.375 1102.58 528.507 1104.52 529.675 1106.45 530.843" stroke="#2F528F" stroke-width="1.33333" stroke-linecap="round" stroke-linejoin="round" stroke-miterlimit="10" fill="none" fill-rule="evenodd"/><path d="M1109.25 525.504C1112.59 525.275 1115.93 525.046 1116.77 525.947 1117.6 526.847 1115.93 528.877 1114.26 530.906" stroke="#2F528F" stroke-width="1.33333" stroke-linecap="round" stroke-linejoin="round" stroke-miterlimit="10" fill="none" fill-rule="evenodd"/><path d="M1121.63 524.269C1124.13 523.92 1126.63 523.572 1127.59 524.185 1128.54 524.797 1128.25 527.289 1127.37 527.946 1126.49 528.603 1124.39 528.365 1122.3 528.126" stroke="#2F528F" stroke-width="1.33333" stroke-linecap="round" stroke-linejoin="round" stroke-miterlimit="10" fill="none" fill-rule="evenodd"/><path d="M1119.21 526.714 1125.74 526.33C1127.64 526.263 1129.12 526.286 1130.61 526.309" stroke="#2F528F" stroke-width="1.33333" stroke-linecap="round" stroke-linejoin="round" stroke-miterlimit="10" fill="none" fill-rule="evenodd"/><path d="M1123.67 523.766C1123.53 526.605 1123.39 529.445 1123.08 530.914 1122.78 532.383 1122.3 532.483 1121.82 532.582" stroke="#2F528F" stroke-width="1.33333" stroke-linecap="round" stroke-linejoin="round" stroke-miterlimit="10" fill="none" fill-rule="evenodd"/><path d="M1123.81 529.852C1124.46 529.381 1127.66 529.182 1128.34 529.615 1129.01 530.047 1128.51 531.976 1127.86 532.447 1127.2 532.919 1125.03 532.717 1124.43 532.442 1123.83 532.168 1123.16 530.323 1123.81 529.852Z" stroke="#2F528F" stroke-width="1.33333" stroke-linecap="round" stroke-linejoin="round" stroke-miterlimit="10" fill="none" fill-rule="evenodd"/><path d="M1100.47 538.659 1095.24 538.261 1090.45 537.074 1086.54 535.564 1083.7 534.119 1084.79 531.98 1087.52 533.37 1091.17 534.781 1095.62 535.883 1100.65 536.266ZM1100.71 535.469 1095.75 535.091 1091.41 534.017 1087.85 532.639 1085.16 531.267 1085.52 530.554 1088.18 531.907 1091.66 533.252 1095.88 534.298 1100.77 534.671Z" fill="#2F528F"/><path d="M1140.72 535.766 1138.37 537.201 1135.79 538.306 1130.94 539.531 1126.56 539.784 1123.19 539.505 1123.39 537.114 1126.59 537.379 1130.57 537.148 1135.02 536.026 1137.26 535.062 1139.47 533.717ZM1139.05 533.035 1136.89 534.35 1134.76 535.265 1130.45 536.354 1126.6 536.577 1123.46 536.316 1123.52 535.519 1126.61 535.775 1130.33 535.56 1134.5 534.505 1136.53 533.637 1138.63 532.352Z" fill="#2F528F"/><path d="M1124.5 544.497C1126.16 541.998 1127.82 539.5 1128.41 539.5 1128.99 539.5 1127.53 544.358 1128.02 544.497 1128.51 544.635 1130.72 540.506 1131.34 540.333 1131.96 540.159 1131.01 543.49 1131.73 543.456 1132.45 543.421 1134.95 540.194 1135.64 540.125 1136.32 540.055 1135.31 542.97 1135.83 543.039 1136.35 543.109 1138.08 540.68 1138.76 540.541 1139.45 540.402 1139.48 542.172 1139.94 542.207 1140.39 542.241 1141.5 540.749 1141.5 540.749L1141.5 540.749" stroke="#7F6000" stroke-width="0.666667" stroke-miterlimit="8" fill="none" fill-rule="evenodd"/><text fill="#FFFFFF" font-family="Meiryo,Meiryo_MSFontService,sans-serif" font-weight="700" font-size="48" transform="translate(187.525 637)">しくつ君投稿アプリ<tspan font-family="Arial,Arial_MSFontService,sans-serif" font-weight="400" font-size="21" x="602.01" y="11">GEO SEARCH CO.,LTD</tspan></text></g></svg>