<svg width="495" height="174" xmlns="http://www.w3.org/2000/svg" xmlns:xlink="http://www.w3.org/1999/xlink" overflow="hidden"><defs><clipPath id="clip0"><rect x="664" y="303" width="495" height="174"/></clipPath></defs><g clip-path="url(#clip0)" transform="translate(-664 -303)"><path d="M664 387.419C664 383.874 666.874 381 670.419 381L1151.58 381C1155.13 381 1158 383.874 1158 387.419L1158 464.581C1158 468.126 1155.13 471 1151.58 471L670.419 471C666.874 471 664 468.126 664 464.581Z" fill="#4A71A0" fill-rule="evenodd"/><path d="M13.2811 0.975564C11.8254 2.5542 13.4161 7.12978 12.3739 10.6446 9.97491 12.954 2.27537 14.1918 0.887728 16.8981-0.94703 19.1369 0.493523 23.102 1.36529 24.0772 1.37453 25.0525 1.14445 26.5672 4.04817 26.8829 6.95189 27.1986 15.5832 26.8697 18.7875 25.9715 22.8544 24.2123 25.5141 25.627 28.4492 24.5938 29.5987 23.5809 29.3536 24.3643 29.6702 20.8053 30.1413 15.4583 30.0774 4.64588 29.6703 1.17285 26.2782-1.78352 25.1255 1.86592 21.1083 1.1729 17.4109 1.68542 14.7369-0.603074 13.2811 0.975564Z" stroke="#352011" stroke-width="2.66667" stroke-linecap="round" stroke-linejoin="round" stroke-miterlimit="10" fill="#632D09" fill-rule="evenodd" transform="matrix(-1 -8.74228e-08 -8.74228e-08 1 1150.5 439.5)"/><path d="M1121.5 460.5 1129.19 461.95C1134.08 463.814 1146.83 466.507 1148.5 462.157" stroke="#352011" stroke-width="2.66667" stroke-miterlimit="8" fill="none" fill-rule="evenodd"/><path d="M1090.78 440.476C1089.33 442.054 1090.92 446.63 1089.87 450.145 1087.47 452.454 1079.78 453.692 1078.39 456.398 1076.55 458.637 1077.99 462.602 1078.87 463.577 1078.87 464.553 1078.64 466.067 1081.55 466.383 1084.45 466.699 1093.08 466.37 1096.29 465.472 1100.35 463.712 1103.01 465.127 1105.95 464.094 1107.1 463.081 1106.85 463.864 1107.17 460.305 1107.64 454.958 1107.58 444.146 1107.17 440.673 1103.78 437.717 1102.63 441.366 1098.61 440.673 1094.91 441.185 1092.24 438.897 1090.78 440.476Z" stroke="#352011" stroke-width="2.66667" stroke-linecap="round" stroke-linejoin="round" stroke-miterlimit="10" fill="#632D09" fill-rule="evenodd"/><path d="M0 0 6.54972 1.08735C10.7131 2.48542 21.5783 4.50485 23 1.24273" stroke="#352011" stroke-width="2.66667" stroke-miterlimit="8" fill="none" fill-rule="evenodd" transform="matrix(-1 -8.74228e-08 -8.74228e-08 1 1102.5 460.5)"/><path d="M1103.89 390.5C1098.75 391.685 1093.64 393.514 1089.96 395.536 1086.29 397.559 1084.27 400.76 1081.83 402.635 1079.39 404.509 1074.8 407.274 1068.5 412.707 1068.55 416.904 1074.87 424.706 1078.57 428.409 1081.02 427.172 1088.4 425.323 1091.75 423.817 1093.83 429.641 1090.77 433.221 1092.27 440.185 1097.27 440.522 1110.55 440.848 1120.42 439.69 1121.03 429.866 1117.9 399.13 1118.4 399.091 1117.12 389.414 1108.73 393.364 1103.89 390.5Z" stroke="#2F528F" stroke-width="2.66667" stroke-miterlimit="8" fill="#9DC3E6" fill-rule="evenodd"/><path d="M1129.59 389.722C1123.5 391.374 1116.42 402.586 1111.54 411.341 1112.12 420.293 1110.26 436.946 1113.31 440.295 1119.15 440.777 1133.01 442.747 1136.9 440.295 1141 437.362 1135.63 421.444 1135.8 416.986 1138.5 416.337 1143.94 423.888 1145.98 421.295 1148.03 418.703 1151.45 410.087 1148.08 401.429 1145.91 396.012 1135.68 388.07 1129.59 389.722Z" stroke="#2F528F" stroke-width="2.66667" stroke-linecap="round" stroke-linejoin="round" stroke-miterlimit="10" fill="#9DC3E6" fill-rule="evenodd"/><path d="M1141.5 397.512C1138.87 392.11 1135.56 392.667 1129.81 392.5 1125.24 397.734 1117.54 423.851 1115.5 432.593 1118.13 432.872 1122.9 434.487 1126.89 432.593 1131.42 424.964 1139.75 403.47 1141.5 397.512Z" stroke="#7F6000" stroke-width="2.66667" stroke-miterlimit="8" fill="#FFFF00" fill-rule="evenodd"/><path d="M20 4.40048C17.9775-0.342244 15.4307 0.146683 11.0113 0 7.49068 4.59604 1.57303 27.5274 0 35.2038 2.02247 35.4483 5.6929 36.8662 8.76404 35.2038 12.2472 28.5053 18.6517 9.63217 20 4.40048Z" stroke="#7F6000" stroke-width="2.66667" stroke-miterlimit="8" fill="#FFFF00" fill-rule="evenodd" transform="matrix(-1 -8.74228e-08 -8.74228e-08 1 1108.5 397.5)"/><path d="M1131.08 436.393C1136.02 433.978 1137.25 436.327 1131.36 430.48 1121.67 430.676 1104.84 431.471 1094.73 429.713 1086.91 436.596 1091.74 434.175 1096.25 436.329 1105.36 437.531 1125.39 439.256 1131.08 436.393Z" stroke="#7F6000" stroke-width="2.66667" stroke-miterlimit="8" fill="#FFFF00" fill-rule="evenodd"/><path d="M1113.09 410.365C1105.89 409.179 1100.78 412.257 1098.02 412.24 1095.26 412.224 1096.12 412.186 1096.54 410.268 1096.95 408.35 1101.78 400.898 1099.83 400.569 1097.62 400.309 1086.39 409.502 1085.5 406.651 1085.5 401.925 1091.85 387.329 1094.5 383.464 1097.15 379.599 1101.4 383.464 1101.4 383.464 1106.11 383.521 1117.96 383.923 1122.78 383.808 1127.61 383.693 1127.26 379.438 1130.37 382.775 1133.49 386.113 1142.09 402.536 1141.47 403.834 1140.84 405.132 1129.67 400.788 1127.61 402.399 1125.56 404.01 1130.56 409.372 1129.13 413.5 1124.84 413.172 1119.28 409.096 1113.09 410.365Z" stroke="#2F528F" stroke-width="2.66667" stroke-miterlimit="8" fill="#9DC3E6" fill-rule="evenodd"/><path d="M1121.28 386.976C1115.38 386.08 1105.64 386.704 1101.48 386.813 1098.13 389.61 1099.87 399.033 1100.68 401.477 1101.59 406.692 1105.88 405.519 1113.03 410.5 1120.57 406.916 1125.22 408.239 1127.23 402.944 1128.07 395.15 1127.18 387.872 1121.28 386.976Z" stroke="#2F528F" stroke-width="2.66667" stroke-miterlimit="8" fill="#FFECD9" fill-rule="evenodd"/><path d="M1076 365C1076 339.595 1092.34 327 1112.5 327 1132.66 327 1149 344.013 1149 365 1148.15 392.173 1132.66 403 1112.5 403 1092.34 403 1076 390.405 1076 365Z" stroke="#2F5597" stroke-width="4" stroke-miterlimit="8" fill="#FFECD9" fill-rule="evenodd"/><path d="M1101.5 371.5C1101.5 369.291 1102.4 367.5 1103.5 367.5 1104.6 367.5 1105.5 369.291 1105.5 371.5 1105.5 373.709 1104.6 375.5 1103.5 375.5 1102.4 375.5 1101.5 373.709 1101.5 371.5Z" stroke="#2F528F" stroke-width="1.33333" stroke-miterlimit="8" fill="#2F5597" fill-rule="evenodd"/><path d="M1116.5 371.5C1116.5 369.291 1117.17 367.5 1118 367.5 1118.83 367.5 1119.5 369.291 1119.5 371.5 1119.5 373.709 1118.83 375.5 1118 375.5 1117.17 375.5 1116.5 373.709 1116.5 371.5Z" stroke="#2F528F" stroke-width="1.33333" stroke-miterlimit="8" fill="#2F5597" fill-rule="evenodd"/><path d="M1102 360.412C1102.02 356.711 1105.13 357.556 1105 361" stroke="#2F528F" stroke-width="2" stroke-miterlimit="8" fill="none" fill-rule="evenodd"/><path d="M0 2.41211C0.0189821-1.28918 3.12792-0.443621 2.99629 3" stroke="#2F528F" stroke-width="2" stroke-miterlimit="8" fill="none" fill-rule="evenodd" transform="matrix(-1 -8.74228e-08 -8.74228e-08 1 1119 358)"/><path d="M1090.5 383.1C1091.82 382.367 1093.14 381.634 1093.54 381.701 1093.94 381.767 1092.6 383.5 1092.89 383.5 1093.18 383.5 1094.92 381.717 1095.28 381.701 1095.64 381.684 1094.67 383.433 1095.07 383.4 1095.46 383.367 1097.24 381.534 1097.67 381.501 1098.11 381.467 1097.2 383.084 1097.67 383.2 1098.14 383.317 1100.5 382.2 1100.5 382.2L1100.5 382.2 1100.28 382.1" stroke="#C55A11" stroke-width="0.666667" stroke-miterlimit="8" fill="none" fill-rule="evenodd"/><path d="M1122.5 383.1C1123.82 382.367 1125.14 381.634 1125.54 381.701 1125.94 381.767 1124.6 383.5 1124.89 383.5 1125.18 383.5 1126.92 381.717 1127.28 381.701 1127.64 381.684 1126.67 383.433 1127.07 383.4 1127.46 383.367 1129.24 381.534 1129.67 381.501 1130.11 381.467 1129.2 383.084 1129.67 383.2 1130.14 383.317 1132.5 382.2 1132.5 382.2L1132.5 382.2 1132.28 382.1" stroke="#C55A11" stroke-width="0.666667" stroke-miterlimit="8" fill="none" fill-rule="evenodd"/><path d="M1116 388C1115.93 394.235 1106.16 394.993 1106 388.256" stroke="#2F528F" stroke-width="2" stroke-miterlimit="8" fill="none" fill-rule="evenodd"/><path d="M1117.17 388.281C1116.73 389.108 1115.64 388.51 1115.6 387.286" stroke="#2F528F" stroke-width="2" stroke-miterlimit="8" fill="none" fill-rule="evenodd"/><path d="M1144.5 350.959C1144.51 350.991 1145.19 354.146 1146.55 353.38 1147.3 352.953 1147.64 352.035 1148.18 351.362 1148.32 350.959 1148.31 350.478 1148.59 350.152 1149.17 349.468 1150.47 348.659 1151.45 348.537 1152.13 348.454 1152.82 348.537 1153.5 348.537" stroke="#2F528F" stroke-width="1.33333" stroke-linecap="round" stroke-linejoin="round" stroke-miterlimit="10" fill="none" fill-rule="evenodd"/><path d="M1144.5 353.959C1144.51 353.991 1145.19 357.146 1146.55 356.38 1147.3 355.953 1147.64 355.035 1148.18 354.362 1148.32 353.959 1148.31 353.478 1148.59 353.152 1149.17 352.468 1150.47 351.659 1151.45 351.537 1152.13 351.454 1152.82 351.537 1153.5 351.537" stroke="#2F528F" stroke-width="1.33333" stroke-linecap="round" stroke-linejoin="round" stroke-miterlimit="10" fill="none" fill-rule="evenodd"/><path d="M1146.5 354.959C1146.51 354.991 1147.19 358.146 1148.55 357.38 1149.3 356.953 1149.64 356.035 1150.18 355.362 1150.32 354.959 1150.31 354.478 1150.59 354.152 1151.17 353.468 1152.47 352.659 1153.45 352.537 1154.13 352.454 1154.82 352.537 1155.5 352.537" stroke="#2F528F" stroke-width="1.33333" stroke-linecap="round" stroke-linejoin="round" stroke-miterlimit="10" fill="none" fill-rule="evenodd"/><path d="M1144 348.95C1144.01 348.99 1144.69 352.775 1146.05 351.856 1146.8 351.344 1147.14 350.242 1147.68 349.435 1147.82 348.95 1147.81 348.374 1148.09 347.982 1148.67 347.161 1149.97 346.19 1150.95 346.044 1151.63 345.944 1152.32 346.044 1153 346.044" stroke="#2F528F" stroke-width="2" stroke-linecap="round" stroke-linejoin="round" stroke-miterlimit="10" fill="none" fill-rule="evenodd"/><path d="M1071.47 344.372C1071.47 344.4 1070.98 346.793 1072.62 347.11 1073.54 347.287 1074.22 346.903 1075.02 346.8 1075.3 346.625 1075.48 346.32 1075.88 346.276 1076.71 346.185 1078.32 346.44 1079.35 346.945 1080.06 347.292 1080.72 347.75 1081.41 348.153" stroke="#2F528F" stroke-width="1.33333" stroke-linecap="round" stroke-linejoin="round" stroke-miterlimit="10" fill="none" fill-rule="evenodd"/><path d="M1070.37 346.66C1070.37 346.689 1069.87 349.081 1071.52 349.398 1072.44 349.576 1073.12 349.192 1073.91 349.088 1074.2 348.914 1074.38 348.608 1074.78 348.564 1075.61 348.473 1077.22 348.729 1078.25 349.234 1078.96 349.58 1079.62 350.039 1080.31 350.441" stroke="#2F528F" stroke-width="1.33333" stroke-linecap="round" stroke-linejoin="round" stroke-miterlimit="10" fill="none" fill-rule="evenodd"/><path d="M1076.44 341.726C1076.41 341.747 1073.02 343.362 1074.18 344.017 1074.83 344.383 1075.93 344.277 1076.81 344.407 1077.3 344.354 1077.83 344.176 1078.26 344.247 1079.16 344.395 1080.36 344.994 1080.72 345.628 1080.96 346.064 1081.02 346.567 1081.17 347.036" stroke="#2F528F" stroke-width="2" stroke-linecap="round" stroke-linejoin="round" stroke-miterlimit="10" fill="none" fill-rule="evenodd"/><path d="M1023.54 333.602C1029.86 329.374 1037.14 327.175 1043.94 323.961 1067.29 368.118 1086.4 411.177 1106.46 456.265 1100.62 461.506 1092.86 462.692 1086.06 465.906 1064.71 422.044 1042.35 378.662 1023.54 333.602Z" stroke="#2F5597" stroke-width="4" stroke-miterlimit="8" fill="#FFFFFF" fill-rule="evenodd"/><path d="M1075.74 438.241 1092.42 430.359 1100.71 447.906 1084.03 455.788C1079.06 448.392 1078.34 445.979 1075.74 438.241Z" fill="#F4B183" fill-rule="evenodd"/><path d="M1059.86 406.514 1077.85 398.011 1086.15 415.558 1068.15 424.061C1063.09 416.71 1062.4 414.284 1059.86 406.514Z" fill="#F4B183" fill-rule="evenodd"/><path d="M1041.56 369.545 1060.4 360.642 1068.69 378.189 1049.85 387.092C1044.72 379.77 1044.05 377.336 1041.56 369.545Z" fill="#F4B183" fill-rule="evenodd"/><path d="M1026.59 334.107 1043.39 326.17 1051.68 343.717 1034.89 351.654C1029.91 344.262 1029.19 341.848 1026.59 334.107Z" fill="#F4B183" fill-rule="evenodd"/><path d="M1026.08 338.234C1026.89 337.065 1028.32 336.953 1029.72 335.996" stroke="#2F528F" stroke-width="2" stroke-miterlimit="8" fill="none" fill-rule="evenodd"/><path d="M1029.09 344.613C1029.9 343.445 1031.33 343.332 1032.73 342.375" stroke="#2F528F" stroke-width="2" stroke-miterlimit="8" fill="none" fill-rule="evenodd"/><path d="M1032.1 351.046C1032.91 349.878 1034.34 349.765 1035.74 348.808" stroke="#2F528F" stroke-width="2" stroke-miterlimit="8" fill="none" fill-rule="evenodd"/><path d="M1035.22 357.65C1036.03 356.481 1037.46 356.369 1038.86 355.412" stroke="#2F528F" stroke-width="2" stroke-miterlimit="8" fill="none" fill-rule="evenodd"/><path d="M1038.24 364.043C1039.05 362.874 1040.48 362.762 1041.89 361.805" stroke="#2F528F" stroke-width="2" stroke-miterlimit="8" fill="none" fill-rule="evenodd"/><path d="M1041.26 370.436C1042.07 369.267 1043.51 369.155 1044.91 368.198" stroke="#2F528F" stroke-width="2" stroke-miterlimit="8" fill="none" fill-rule="evenodd"/><path d="M1044.39 377.06C1045.2 375.892 1046.64 375.779 1048.04 374.822" stroke="#2F528F" stroke-width="2" stroke-miterlimit="8" fill="none" fill-rule="evenodd"/><path d="M1047.52 383.684C1048.33 382.516 1049.77 382.403 1051.17 381.447" stroke="#2F528F" stroke-width="2" stroke-miterlimit="8" fill="none" fill-rule="evenodd"/><path d="M1050.65 390.309C1051.46 389.14 1052.9 389.028 1054.3 388.071" stroke="#2F528F" stroke-width="2" stroke-miterlimit="8" fill="none" fill-rule="evenodd"/><path d="M1053.69 396.722C1054.5 395.553 1055.93 395.441 1057.33 394.484" stroke="#2F528F" stroke-width="2" stroke-miterlimit="8" fill="none" fill-rule="evenodd"/><path d="M1056.51 402.975C1057.32 401.806 1058.75 401.694 1060.16 400.737" stroke="#2F528F" stroke-width="2" stroke-miterlimit="8" fill="none" fill-rule="evenodd"/><path d="M1059.63 409.578C1060.44 408.41 1061.88 408.297 1063.28 407.34" stroke="#2F528F" stroke-width="2" stroke-miterlimit="8" fill="none" fill-rule="evenodd"/><path d="M1062.65 415.971C1063.46 414.803 1064.9 414.69 1066.3 413.733" stroke="#2F528F" stroke-width="2" stroke-miterlimit="8" fill="none" fill-rule="evenodd"/><path d="M1065.69 422.405C1066.5 421.237 1067.94 421.124 1069.34 420.167" stroke="#2F528F" stroke-width="2" stroke-miterlimit="8" fill="none" fill-rule="evenodd"/><path d="M1068.73 428.819C1069.54 427.65 1070.97 427.538 1072.37 426.581" stroke="#2F528F" stroke-width="2" stroke-miterlimit="8" fill="none" fill-rule="evenodd"/><path d="M1071.75 434.604C1072.56 433.436 1074 433.323 1075.4 432.366" stroke="#2F528F" stroke-width="2" stroke-miterlimit="8" fill="none" fill-rule="evenodd"/><path d="M1074.19 440.382C1075 439.214 1076.43 439.101 1077.83 438.144" stroke="#2F528F" stroke-width="2" stroke-miterlimit="8" fill="none" fill-rule="evenodd"/><path d="M1077.22 446.796C1078.03 445.627 1079.46 445.515 1080.87 444.558" stroke="#2F528F" stroke-width="2" stroke-miterlimit="8" fill="none" fill-rule="evenodd"/><path d="M1080.15 452.998C1080.96 451.83 1082.4 451.717 1083.8 450.76" stroke="#2F528F" stroke-width="2" stroke-miterlimit="8" fill="none" fill-rule="evenodd"/><path d="M1083.08 459.201C1083.89 458.033 1085.33 457.92 1086.73 456.963" stroke="#2F528F" stroke-width="2" stroke-miterlimit="8" fill="none" fill-rule="evenodd"/><path d="M1042.94 330.833C1043.75 329.664 1045.19 329.552 1046.59 328.595" stroke="#2F528F" stroke-width="2" stroke-miterlimit="8" fill="none" fill-rule="evenodd"/><path d="M1045.96 337.212C1046.77 336.043 1048.2 335.931 1049.6 334.974" stroke="#2F528F" stroke-width="2" stroke-miterlimit="8" fill="none" fill-rule="evenodd"/><path d="M1048.97 343.645C1049.78 342.476 1051.21 342.364 1052.61 341.407" stroke="#2F528F" stroke-width="2" stroke-miterlimit="8" fill="none" fill-rule="evenodd"/><path d="M1052.09 350.249C1052.9 349.08 1054.33 348.968 1055.73 348.011" stroke="#2F528F" stroke-width="2" stroke-miterlimit="8" fill="none" fill-rule="evenodd"/><path d="M1055.11 356.642C1055.92 355.473 1057.35 355.361 1058.75 354.404" stroke="#2F528F" stroke-width="2" stroke-miterlimit="8" fill="none" fill-rule="evenodd"/><path d="M1058.13 363.035C1058.94 361.866 1060.37 361.754 1061.78 360.797" stroke="#2F528F" stroke-width="2" stroke-miterlimit="8" fill="none" fill-rule="evenodd"/><path d="M1061.26 369.659C1062.07 368.49 1063.5 368.378 1064.91 367.421" stroke="#2F528F" stroke-width="2" stroke-miterlimit="8" fill="none" fill-rule="evenodd"/><path d="M1064.39 376.283C1065.2 375.115 1066.63 375.002 1068.04 374.045" stroke="#2F528F" stroke-width="2" stroke-miterlimit="8" fill="none" fill-rule="evenodd"/><path d="M1067.52 382.907C1068.33 381.739 1069.77 381.626 1071.17 380.669" stroke="#2F528F" stroke-width="2" stroke-miterlimit="8" fill="none" fill-rule="evenodd"/><path d="M1070.55 389.321C1071.36 388.152 1072.8 388.04 1074.2 387.083" stroke="#2F528F" stroke-width="2" stroke-miterlimit="8" fill="none" fill-rule="evenodd"/><path d="M1073.38 395.573C1074.19 394.405 1075.62 394.292 1077.02 393.335" stroke="#2F528F" stroke-width="2" stroke-miterlimit="8" fill="none" fill-rule="evenodd"/><path d="M1076.5 402.177C1077.31 401.008 1078.74 400.896 1080.14 399.939" stroke="#2F528F" stroke-width="2" stroke-miterlimit="8" fill="none" fill-rule="evenodd"/><path d="M1079.52 408.57C1080.33 407.401 1081.76 407.289 1083.17 406.332" stroke="#2F528F" stroke-width="2" stroke-miterlimit="8" fill="none" fill-rule="evenodd"/><path d="M1082.56 415.004C1083.37 413.835 1084.81 413.723 1086.21 412.766" stroke="#2F528F" stroke-width="2" stroke-miterlimit="8" fill="none" fill-rule="evenodd"/><path d="M1085.59 421.417C1086.4 420.249 1087.84 420.136 1089.24 419.18" stroke="#2F528F" stroke-width="2" stroke-miterlimit="8" fill="none" fill-rule="evenodd"/><path d="M1088.62 427.203C1089.43 426.034 1090.87 425.922 1092.27 424.965" stroke="#2F528F" stroke-width="2" stroke-miterlimit="8" fill="none" fill-rule="evenodd"/><path d="M1091.06 432.981C1091.87 431.812 1093.3 431.7 1094.7 430.743" stroke="#2F528F" stroke-width="2" stroke-miterlimit="8" fill="none" fill-rule="evenodd"/><path d="M1094.09 439.394C1094.9 438.226 1096.33 438.113 1097.73 437.156" stroke="#2F528F" stroke-width="2" stroke-miterlimit="8" fill="none" fill-rule="evenodd"/><path d="M1097.02 445.597C1097.83 444.428 1099.26 444.316 1100.66 443.359" stroke="#2F528F" stroke-width="2" stroke-miterlimit="8" fill="none" fill-rule="evenodd"/><path d="M1099.95 451.8C1100.76 450.631 1102.19 450.519 1103.6 449.562" stroke="#2F528F" stroke-width="2" stroke-miterlimit="8" fill="none" fill-rule="evenodd"/><path d="M1047.65 404.692C1046.98 403.008 1046.3 401.324 1046.97 399.748 1047.64 398.173 1049.93 396.036 1051.66 395.241 1053.38 394.446 1056.43 394.573 1057.34 394.979 1058.26 395.385 1057.54 396.957 1057.13 397.677 1056.71 398.398 1055.77 398.85 1054.83 399.302" stroke="#2F5597" stroke-width="3.33333" stroke-linecap="round" stroke-linejoin="round" stroke-miterlimit="10" fill="#FFECD9" fill-rule="evenodd"/><path d="M1049.72 407.774C1049.32 406.061 1048.92 404.348 1049.76 402.908 1050.59 401.467 1053.02 399.684 1054.74 399.13 1056.46 398.576 1059.28 399.078 1060.08 399.584 1060.87 400.09 1059.99 401.522 1059.51 402.167 1059.02 402.812 1058.09 403.133 1057.15 403.453" stroke="#2F5597" stroke-width="3.33333" stroke-linecap="round" stroke-linejoin="round" stroke-miterlimit="10" fill="#FFECD9" fill-rule="evenodd"/><path d="M1052.34 413.1C1051.94 411.387 1051.54 409.674 1052.37 408.233 1053.21 406.792 1055.63 405.009 1057.35 404.455 1059.07 403.901 1061.9 404.404 1062.69 404.91 1063.49 405.416 1062.61 406.848 1062.12 407.493 1061.63 408.137 1060.7 408.458 1059.77 408.779" stroke="#2F5597" stroke-width="3.33333" stroke-linecap="round" stroke-linejoin="round" stroke-miterlimit="10" fill="#FFECD9" fill-rule="evenodd"/><path d="M1060.12 417.576C1051.97 417.189 1054.21 414.64 1054.6 412.788 1054.99 410.935 1057.43 410.34 1058.96 409.948 1060.48 409.557 1063.02 410.023 1063.74 410.44 1064.47 410.858 1063.72 411.959 1063.3 412.453 1062.88 412.947 1062.05 413.175 1061.23 413.403" stroke="#2F5597" stroke-width="3.33333" stroke-linecap="round" stroke-linejoin="round" stroke-miterlimit="10" fill="#FFECD9" fill-rule="evenodd"/><path d="M1069.62 349.857C1069.63 349.884 1069.84 352.318 1071.51 352.155 1072.44 352.064 1072.98 351.504 1073.71 351.179 1073.94 350.93 1074.02 350.587 1074.39 350.432 1075.17 350.108 1076.78 349.898 1077.91 350.089 1078.69 350.219 1079.46 350.472 1080.23 350.663" stroke="#2F528F" stroke-width="1.33333" stroke-linecap="round" stroke-linejoin="round" stroke-miterlimit="10" fill="none" fill-rule="evenodd"/><path d="M1069.22 352.364C1069.22 352.391 1069.43 354.825 1071.1 354.662 1072.03 354.571 1072.57 354.011 1073.31 353.686 1073.53 353.437 1073.61 353.094 1073.98 352.939 1074.76 352.615 1076.37 352.405 1077.51 352.595 1078.29 352.726 1079.05 352.979 1079.82 353.17" stroke="#2F528F" stroke-width="1.33333" stroke-linecap="round" stroke-linejoin="round" stroke-miterlimit="10" fill="none" fill-rule="evenodd"/><path d="M1073.64 345.909C1073.62 345.939 1070.82 348.449 1072.12 348.748 1072.85 348.914 1073.88 348.499 1074.76 348.375 1075.21 348.187 1075.67 347.864 1076.1 347.81 1077.01 347.698 1078.33 347.932 1078.85 348.439 1079.21 348.787 1079.41 349.253 1079.69 349.659" stroke="#2F528F" stroke-width="2" stroke-linecap="round" stroke-linejoin="round" stroke-miterlimit="10" fill="none" fill-rule="evenodd"/><path d="M0 1.80285C0.0104971 1.82676 0.547027 4.13958 1.62577 3.57853 2.22835 3.26516 2.49283 2.59203 2.92639 2.0988 3.03479 1.80285 3.03212 1.45061 3.25154 1.21096 3.7107 0.70948 4.74366 0.116375 5.52762 0.0271712 6.06537-0.0340222 6.61148 0.0271712 7.15339 0.0271712" stroke="#2F528F" stroke-width="1.33333" stroke-linecap="round" stroke-linejoin="round" stroke-miterlimit="10" fill="none" fill-rule="evenodd" transform="matrix(-0.862196 0.506575 0.506575 0.862196 1152.77 352.445)"/><path d="M0 1.80285C0.0104971 1.82676 0.547027 4.13958 1.62577 3.57853 2.22835 3.26516 2.49283 2.59203 2.92639 2.0988 3.03479 1.80285 3.03212 1.45061 3.25154 1.21096 3.7107 0.70948 4.74366 0.116375 5.52762 0.0271712 6.06537-0.0340222 6.61148 0.0271712 7.15339 0.0271712" stroke="#2F528F" stroke-width="2" stroke-linecap="round" stroke-linejoin="round" stroke-miterlimit="10" fill="none" fill-rule="evenodd" transform="matrix(-0.862196 0.506575 0.506575 0.862196 1153.52 354.733)"/><path d="M0 1.98076C0.00955409 2.00703 0.497884 4.54807 1.47972 3.93166 2.02817 3.58736 2.26889 2.84781 2.66349 2.30591 2.76216 1.98076 2.75973 1.59375 2.95944 1.33046 3.37735 0.779492 4.31752 0.127859 5.03104 0.0298524 5.52049-0.0373796 6.01754 0.0298524 6.51076 0.0298524" stroke="#2F528F" stroke-width="1.33333" stroke-linecap="round" stroke-linejoin="round" stroke-miterlimit="10" fill="none" fill-rule="evenodd" transform="matrix(-0.308809 0.951124 0.951124 0.308809 1148.73 349.903)"/><path d="M1091.17 426.453C1109.61 424.943 1126.53 425.446 1145.73 426.453 1147 439.701 1146.49 452.447 1145.73 465.444 1129.32 467.205 1109.61 466.45 1091.17 465.444 1090.15 451.944 1090.41 440.456 1091.17 426.453Z" stroke="#7F7F7F" stroke-width="2.66667" stroke-miterlimit="8" fill="#385723" fill-rule="evenodd"/><path d="M1091.5 434.5C1109.82 431.984 1127.06 431.688 1143.5 434.5" stroke="#FFFFFF" stroke-width="1.33333" stroke-miterlimit="8" fill="none" fill-rule="evenodd"/><path d="M1091.5 444.5C1110.62 441.41 1127.6 442.293 1143.5 444.5" stroke="#FFFFFF" stroke-width="1.33333" stroke-miterlimit="8" fill="none" fill-rule="evenodd"/><path d="M1101.5 455.343C1105.07 451.039 1108.63 446.735 1109.28 447.616 1109.93 448.497 1105.63 458.359 1105.39 460.63 1105.15 462.9 1106.17 463.104 1107.85 461.24 1109.52 459.376 1113.82 451.411 1115.42 449.446 1117.03 447.48 1117.64 448.192 1117.47 449.446 1117.3 450.7 1114.74 455.478 1114.4 456.969 1114.06 458.461 1114.02 459.342 1115.42 458.393 1116.82 457.444 1121.77 451.513 1122.79 451.276 1123.82 451.039 1121.39 455.919 1121.56 456.969 1121.73 458.02 1121.97 458.495 1123.82 457.579 1125.66 456.664 1131.25 451.073 1132.62 451.479 1133.33 452.598 1130.95 459.647 1132 460.02 1133.33 459.613 1136.95 454.462 1138.96 453.716 1143.43 450.734 1142.84 455.072 1141.63 456.969" stroke="#FFFFFF" stroke-width="0.666667" stroke-miterlimit="8" fill="none" fill-rule="evenodd"/><path d="M1105.5 443.5C1103.78 441.092 1104.62 433.634 1105.5 427.5" stroke="#FFFFFF" stroke-width="1.33333" stroke-miterlimit="8" fill="none" fill-rule="evenodd"/><path d="M1141.5 411.599C1140.08 410.061 1139.88 408.233 1139.07 406.642 1138.26 405.052 1136.84 403.985 1136.64 402.053 1136.43 400.121 1138.41 396.644 1137.85 395.053 1137.3 393.462 1134.71 392.578 1133.29 392.507 1131.88 392.437 1130.3 392.861 1129.34 394.629 1128.38 396.396 1127.67 400.533 1127.52 403.114 1127.37 405.694 1128.18 408.806 1128.43 410.114 1128.68 411.422 1129.04 410.962 1129.04 410.962L1136.03 423.5" stroke="#2F528F" stroke-width="3.33333" stroke-linecap="round" stroke-linejoin="round" stroke-miterlimit="10" fill="#FFECD9" fill-rule="evenodd"/><path d="M1139.48 407.5C1142.55 408.728 1145.61 409.956 1147.28 412.089 1148.94 414.223 1149.67 416.839 1149.47 420.301 1149.26 423.763 1147.88 430.083 1146.06 432.86 1144.23 435.638 1140.78 436.201 1138.51 436.966 1136.24 437.731 1132.42 437.449 1132.42 437.449L1132.42 437.449C1131.53 436.765 1127.96 434.551 1127.07 433.343 1126.18 432.136 1126.46 430.807 1127.07 430.204 1127.68 429.6 1129.83 429.721 1130.72 429.721 1131.61 429.721 1132.02 429.962 1132.42 430.204" stroke="#2F5597" stroke-width="3.33333" stroke-linecap="round" stroke-linejoin="round" stroke-miterlimit="10" fill="#FFECD9" fill-rule="evenodd"/><path d="M1141.5 431.207C1138.75 432.042 1136 432.876 1133.25 432.32 1130.5 431.764 1126.58 429.585 1125 427.869 1123.43 426.154 1123.22 423.001 1123.78 422.027 1124.34 421.054 1127.09 421.657 1128.36 422.027 1129.64 422.398 1130.53 423.326 1131.42 424.253" stroke="#2F5597" stroke-width="3.33333" stroke-linecap="round" stroke-linejoin="round" stroke-miterlimit="10" fill="#FFECD9" fill-rule="evenodd"/><path d="M1141.5 426.207C1138.75 427.042 1136 427.876 1133.25 427.32 1130.5 426.764 1126.58 424.585 1125 422.869 1123.43 421.154 1123.22 418.001 1123.78 417.027 1124.34 416.054 1127.09 416.657 1128.36 417.027 1129.64 417.398 1130.53 418.326 1131.42 419.253" stroke="#2F5597" stroke-width="3.33333" stroke-linecap="round" stroke-linejoin="round" stroke-miterlimit="10" fill="#FFECD9" fill-rule="evenodd"/><path d="M1140.5 420.83C1137.23 422.934 1135.04 422.686 1132.45 422.045 1129.87 421.404 1126.27 418.76 1124.99 416.987 1123.71 415.213 1122.5 413.759 1124.77 411.404 1127.04 409.049 1128 411.993 1129.24 412.398 1130.49 412.803 1131.88 413.136 1132.75 414.148" stroke="#2F5597" stroke-width="3.33333" stroke-linecap="round" stroke-linejoin="round" stroke-miterlimit="10" fill="#FFECD9" fill-rule="evenodd"/><path d="M1084.95 346.708C1090.8 347.647 1105.34 350.801 1115.2 350.989 1125.06 351.177 1139.01 348.924 1144.13 347.835 1149.24 346.746 1145.98 345.828 1145.89 344.455 1145.81 343.082 1144.45 340.852 1143.59 339.596 1142.74 338.34 1143.55 339.575 1142.08 335.567 1140.61 331.56 1139.64 321.127 1134.76 315.553 1129.87 309.979 1124.7 305.49 1112.77 305.027 1100.84 304.565 1095.56 310.059 1090.69 314.715 1085.81 319.372 1083.64 327.633 1083.53 332.965 1082.31 335.593 1083.2 334.542 1082.3 336.119 1081.39 337.696 1078.58 341.076 1078.1 342.428 1077.62 343.779 1078.95 344.643 1080.09 345.356 1081.23 346.07 1079.09 345.77 1084.95 346.708Z" stroke="#7F6000" stroke-width="4" stroke-linecap="round" stroke-linejoin="round" stroke-miterlimit="10" fill="#FFCC00" fill-rule="evenodd"/><path d="M1097.46 326.117C1096.44 328.952 1095.41 331.787 1096.02 332.814 1096.64 333.841 1101.13 332.277 1101.13 332.277L1101.13 332.277 1101.13 332.277" stroke="#2F528F" stroke-width="1.33333" stroke-linecap="round" stroke-linejoin="round" stroke-miterlimit="10" fill="none" fill-rule="evenodd"/><path d="M1107.84 327.406C1105.73 328.503 1103.61 329.599 1103.52 330.731 1103.43 331.863 1105.36 333.03 1107.3 334.198" stroke="#2F528F" stroke-width="1.33333" stroke-linecap="round" stroke-linejoin="round" stroke-miterlimit="10" fill="none" fill-rule="evenodd"/><path d="M1110.09 328.859C1113.44 328.63 1116.78 328.402 1117.62 329.302 1118.45 330.202 1116.78 332.232 1115.1 334.261" stroke="#2F528F" stroke-width="1.33333" stroke-linecap="round" stroke-linejoin="round" stroke-miterlimit="10" fill="none" fill-rule="evenodd"/><path d="M1122.48 327.624C1124.98 327.276 1127.48 326.927 1128.43 327.54 1129.39 328.152 1129.09 330.644 1128.21 331.301 1127.33 331.958 1125.24 331.72 1123.15 331.481" stroke="#2F528F" stroke-width="1.33333" stroke-linecap="round" stroke-linejoin="round" stroke-miterlimit="10" fill="none" fill-rule="evenodd"/><path d="M1120.05 330.069 1126.58 329.685C1128.48 329.618 1129.97 329.641 1131.45 329.664" stroke="#2F528F" stroke-width="1.33333" stroke-linecap="round" stroke-linejoin="round" stroke-miterlimit="10" fill="none" fill-rule="evenodd"/><path d="M1124.51 327.121C1124.37 329.96 1124.24 332.8 1123.93 334.269 1123.62 335.738 1123.15 335.838 1122.67 335.937" stroke="#2F528F" stroke-width="1.33333" stroke-linecap="round" stroke-linejoin="round" stroke-miterlimit="10" fill="none" fill-rule="evenodd"/><path d="M1124.65 333.207C1125.3 332.736 1128.51 332.537 1129.18 332.97 1129.86 333.402 1129.35 335.331 1128.7 335.802 1128.05 336.274 1125.88 336.072 1125.28 335.797 1124.68 335.523 1124 333.678 1124.65 333.207Z" stroke="#2F528F" stroke-width="1.33333" stroke-linecap="round" stroke-linejoin="round" stroke-miterlimit="10" fill="none" fill-rule="evenodd"/><path d="M1101.32 342.014 1096.08 341.616 1091.29 340.429 1087.39 338.919 1084.55 337.474 1085.64 335.335 1088.37 336.725 1092.02 338.136 1096.47 339.238 1101.5 339.621ZM1101.56 338.824 1096.59 338.446 1092.26 337.372 1088.69 335.994 1086 334.622 1086.36 333.909 1089.02 335.262 1092.5 336.607 1096.72 337.653 1101.62 338.026Z" fill="#2F528F"/><path d="M1141.56 339.121 1139.21 340.556 1136.63 341.661 1131.79 342.886 1127.41 343.14 1124.04 342.86 1124.23 340.469 1127.44 340.734 1131.42 340.503 1135.86 339.381 1138.11 338.418 1140.31 337.072ZM1139.89 336.39 1137.74 337.705 1135.6 338.62 1131.3 339.709 1127.45 339.932 1124.3 339.671 1124.37 338.874 1127.46 339.13 1131.17 338.915 1135.35 337.86 1137.37 336.992 1139.48 335.707Z" fill="#2F528F"/><path d="M1125.5 347.497C1127.16 345.499 1128.82 343.5 1129.41 343.5 1129.99 343.5 1128.53 347.386 1129.02 347.497 1129.51 347.608 1131.72 344.305 1132.34 344.166 1132.96 344.027 1132.01 346.692 1132.73 346.665 1133.45 346.637 1135.95 344.055 1136.64 344 1137.32 343.944 1136.31 346.276 1136.83 346.331 1137.35 346.387 1139.08 344.444 1139.76 344.333 1140.45 344.222 1140.48 345.637 1140.94 345.665 1141.39 345.693 1142.5 344.499 1142.5 344.499L1142.5 344.499" stroke="#7F6000" stroke-width="0.666667" stroke-miterlimit="8" fill="none" fill-rule="evenodd"/><text fill="#FFFFFF" font-family="Meiryo,Meiryo_MSFontService,sans-serif" font-weight="700" font-size="24" transform="translate(689.095 413)">しくつ君投稿アプリ<tspan font-family="Arial,Arial_MSFontService,sans-serif" font-weight="400" font-size="15" x="205.792" y="51">GEO SEARCH CO.,LTD</tspan></text></g></svg>
